<svg width="32" height="32" viewBox="0 0 32 32" fill="none" xmlns="http://www.w3.org/2000/svg">
<rect width="32" height="32" rx="16" fill="white"/>
<path d="M11.3584 27.9393C11.3769 27.9637 11.3945 27.983 11.4108 27.9971C11.383 28.0081 11.3652 27.9877 11.3584 27.9393C10.8176 27.2273 9.48895 22.2401 15.9018 19.4419C22.5339 16.5481 22.8248 13.4123 22.8248 13.4123C23.0468 16.0101 23.8929 17.3763 18.1611 20.0598C12.8607 22.5412 11.2753 27.3456 11.3584 27.9393Z" fill="#101010"/>
<path d="M9.42069 25.7424C9.43831 25.7675 9.45518 25.7875 9.47098 25.8022C9.44284 25.8121 9.42575 25.791 9.42069 25.7424C8.90519 25.0102 7.75264 19.9757 14.2595 17.4241C20.9888 14.7854 21.3896 11.6629 21.3896 11.6629C21.5203 14.2674 22.3178 15.665 16.4956 18.1278C11.1116 20.4053 9.35845 25.1459 9.42069 25.7424Z" fill="#101010"/>
<path d="M12.4595 8.56232C11.2372 7.20312 11.0432 6.42287 11.5946 5C11.8929 6.97077 14.3176 8.47206 20.8131 11.5309C20.7136 12.4903 20.5602 12.7913 20.1802 13.0702C20.1802 13.0702 13.6817 9.92151 12.4595 8.56232Z" fill="#101010"/>
<path d="M11.3868 10.5485C10.1851 9.16952 10.0028 8.38619 10.5756 6.97251C10.8329 8.86478 12.9702 10.3179 18.8179 13.2185C19.1976 13.4069 19.2819 13.935 18.9772 14.2372C18.6129 14.5983 18.0712 14.6844 17.6228 14.4476C15.6828 13.4232 12.2409 11.5287 11.3868 10.5485Z" fill="#101010"/>
</svg>